<svg width="414" height="334" viewBox="0 0 414 334" fill="none" xmlns="http://www.w3.org/2000/svg">
<g filter="url(#filter0_d_76_331)">
<mask id="path-1-inside-1_76_331" fill="white">
<path fill-rule="evenodd" clip-rule="evenodd" d="M414 0H0V323.798C1.83311 319.727 5.69326 316.733 10.3793 316.171L202.848 293.059C205.224 292.774 207.626 292.774 210.002 293.059L402.471 316.171C407.967 316.831 412.328 320.836 413.613 326H414V0Z"/>
</mask>
<path fill-rule="evenodd" clip-rule="evenodd" d="M414 0H0V323.798C1.83311 319.727 5.69326 316.733 10.3793 316.171L202.848 293.059C205.224 292.774 207.626 292.774 210.002 293.059L402.471 316.171C407.967 316.831 412.328 320.836 413.613 326H414V0Z" fill="#0C4531"/>
<path d="M0 0V-1H-1V0H0ZM414 0H415V-1H414V0ZM0 323.798H-1L0.911811 324.208L0 323.798ZM10.3793 316.171L10.4985 317.164L10.4985 317.164L10.3793 316.171ZM202.848 293.059L202.729 292.067L202.729 292.067L202.848 293.059ZM210.002 293.059L209.882 294.052L209.882 294.052L210.002 293.059ZM402.471 316.171L402.59 315.178L402.59 315.178L402.471 316.171ZM413.613 326L412.643 326.242L412.832 327H413.613V326ZM414 326V327H415V326H414ZM0 1H414V-1H0V1ZM1 323.798V0H-1V323.798H1ZM10.2601 315.178C5.2151 315.784 1.06062 319.007 -0.911811 323.387L0.911811 324.208C2.60561 320.447 6.17143 317.683 10.4985 317.164L10.2601 315.178ZM202.729 292.067L10.2601 315.178L10.4985 317.164L202.968 294.052L202.729 292.067ZM210.121 292.067C207.666 291.772 205.184 291.772 202.729 292.067L202.968 294.052C205.264 293.777 207.586 293.777 209.882 294.052L210.121 292.067ZM402.59 315.178L210.121 292.067L209.882 294.052L402.351 317.164L402.59 315.178ZM414.584 325.758C413.2 320.2 408.507 315.888 402.59 315.178L402.351 317.164C407.427 317.773 411.455 321.471 412.643 326.242L414.584 325.758ZM414 325H413.613V327H414V325ZM413 0V326H415V0H413Z" fill="black" mask="url(#path-1-inside-1_76_331)"/>
</g>
<defs>
<filter id="filter0_d_76_331" x="-4" y="0" width="422" height="334" filterUnits="userSpaceOnUse" color-interpolation-filters="sRGB">
<feFlood flood-opacity="0" result="BackgroundImageFix"/>
<feColorMatrix in="SourceAlpha" type="matrix" values="0 0 0 0 0 0 0 0 0 0 0 0 0 0 0 0 0 0 127 0" result="hardAlpha"/>
<feOffset dy="4"/>
<feGaussianBlur stdDeviation="2"/>
<feComposite in2="hardAlpha" operator="out"/>
<feColorMatrix type="matrix" values="0 0 0 0 0 0 0 0 0 0 0 0 0 0 0 0 0 0 0.25 0"/>
<feBlend mode="normal" in2="BackgroundImageFix" result="effect1_dropShadow_76_331"/>
<feBlend mode="normal" in="SourceGraphic" in2="effect1_dropShadow_76_331" result="shape"/>
</filter>
</defs>
</svg>
