<svg width="360" height="507" viewBox="0 0 360 507" fill="#000" xmlns="http://www.w3.org/2000/svg">
<g filter="url(#filter0_d_181_362)">
<mask id="path-1-inside-1_181_362" fill="white">
<path d="M-1 0H361V447H-1V0Z"/>
</mask>
<path d="M-1 0H361V447H-1V0Z" fill="#0C4531"/>
<path d="M-1 0V-1H-2V0H-1ZM361 0H362V-1H361V0ZM361 447V448H362V447H361ZM-1 447H-2V448H-1V447ZM-1 1H361V-1H-1V1ZM360 0V447H362V0H360ZM361 446H-1V448H361V446ZM0 447V0H-2V447H0Z" fill="black" mask="url(#path-1-inside-1_181_362)"/>
</g>
<g filter="url(#filter1_d_181_362)">
<path d="M174.153 498.206L23.153 473.485C8.64837 471.111 -2 458.577 -2 443.879V440H360V443.879C360 458.577 349.352 471.111 334.847 473.485L183.847 498.206C180.637 498.732 177.363 498.732 174.153 498.206Z" fill="#0C4531"/>
</g>
<defs>
<filter id="filter0_d_181_362" x="-5" y="0" width="370" height="455" filterUnits="userSpaceOnUse" color-interpolation-filters="sRGB">
<feFlood flood-opacity="0" result="BackgroundImageFix"/>
<feColorMatrix in="SourceAlpha" type="matrix" values="0 0 0 0 0 0 0 0 0 0 0 0 0 0 0 0 0 0 127 0" result="hardAlpha"/>
<feOffset dy="4"/>
<feGaussianBlur stdDeviation="2"/>
<feComposite in2="hardAlpha" operator="out"/>
<feColorMatrix type="matrix" values="0 0 0 0 0 0 0 0 0 0 0 0 0 0 0 0 0 0 0.25 0"/>
<feBlend mode="normal" in2="BackgroundImageFix" result="effect1_dropShadow_181_362"/>
<feBlend mode="normal" in="SourceGraphic" in2="effect1_dropShadow_181_362" result="shape"/>
</filter>
<filter id="filter1_d_181_362" x="-6" y="440" width="370" height="66.6006" filterUnits="userSpaceOnUse" color-interpolation-filters="sRGB">
<feFlood flood-opacity="0" result="BackgroundImageFix"/>
<feColorMatrix in="SourceAlpha" type="matrix" values="0 0 0 0 0 0 0 0 0 0 0 0 0 0 0 0 0 0 127 0" result="hardAlpha"/>
<feOffset dy="4"/>
<feGaussianBlur stdDeviation="2"/>
<feComposite in2="hardAlpha" operator="out"/>
<feColorMatrix type="matrix" values="0 0 0 0 0 0 0 0 0 0 0 0 0 0 0 0 0 0 0.25 0"/>
<feBlend mode="normal" in2="BackgroundImageFix" result="effect1_dropShadow_181_362"/>
<feBlend mode="normal" in="SourceGraphic" in2="effect1_dropShadow_181_362" result="shape"/>
</filter>
</defs>
</svg>
